:SAMPLES-PER-SECOND 30
:FULLY-SPECIFIED
:DEGREES
127
root  29.5556 38.7607 2.12736 4.86293 84.8677 9.62204
RightUpLeg  8.21178 -6.26489 -0.422951
RightLeg  15.0794 7.54079 0.788159
RightFoot  -16.8967 -0.380024 -5.4842
RightToes  3.49245e-010 0 -3.6325e-017
Spine  2.36953 2.26533 10.1702
Spine1  9.17524 4.47622 -7.47917
HEad  -14.0598 -1.15432 -2.86542
LeftShoulder1  -0.497642 4.77274 -33.068
LeftArm  1.44553 23.7129 -37.8249
LeftForeArm  40.9822 -9.79337 -9.3346
LeftHand  -0.156729 9.06973 -3.18573
RightShoulder  -0.708461 -5.58976 27.3013
RightArm  25.7904 14.4879 50.731
RightForeArm  8.72473 22.5415 4.50376
RightHand  -0.035966 4.62518 -0.703557
LeftUpLeg  -17.1954 2.17152 0.962284
LeftLeg  2.7631 -3.54363 0.0794911
LeftFoot  -1.1367 0.379979 -4.17362
LeftToes  -5.6298e-010 8.41567e-011 -1.83319e-011
128
root  30.7573 38.572 2.14954 5.64035 84.5865 10.7493
RightUpLeg  10.9102 -6.31971 -1.15781
RightLeg  14.61 8.11027 0.912204
RightFoot  -18.5451 -0.442964 -5.04135
RightToes  3.49245e-010 0 -3.6325e-017
Spine  2.25555 2.05877 8.96103
Spine1  9.6612 4.21559 -7.227
HEad  -14.0183 -0.497991 -2.73775
LeftShoulder1  -0.536449 4.86533 -33.2499
LeftArm  1.67059 21.9966 -37.9211
LeftForeArm  40.4372 -9.72748 -9.44688
LeftHand  -0.115938 8.48105 -2.47394
RightShoulder  -0.709536 -5.57607 27.5755
RightArm  26.4995 14.5692 50.8242
RightForeArm  8.36524 22.1831 4.54711
RightHand  -0.0701218 4.66525 -1.10847
LeftUpLeg  -16.2336 2.42147 0.679008
LeftLeg  -2.52148 -1.0837 -0.042303
LeftFoot  -0.96818 0.477452 -5.18735
LeftToes  -5.6298e-010 8.41567e-011 -1.83319e-011
129
root  32.0339 38.2655 2.11658 3.95844 84.5994 9.08107
RightUpLeg  12.8505 -5.65088 -1.29296
RightLeg  15.2548 7.60862 0.889493
RightFoot  -20.5407 -0.50189 -4.51161
RightToes  3.49245e-010 0 -3.6325e-017
Spine  1.97123 1.78053 8.69953
Spine1  9.76808 3.99137 -7.52656
HEad  -14.042 0.231554 -2.40942
LeftShoulder1  -0.537283 4.86555 -33.3063
LeftArm  2.80682 19.9679 -37.8895
LeftForeArm  39.1978 -10.1476 -9.56085
LeftHand  -0.110139 8.69385 -2.08026
RightShoulder  -0.732857 -5.62254 27.9389
RightArm  26.8226 13.8232 51.0444
RightForeArm  8.73542 21.2726 4.63012
RightHand  -0.0555504 3.48469 -0.974185
LeftUpLeg  -17.0658 2.40115 0.39611
LeftLeg  -0.575689 1.59403 -0.222596
LeftFoot  -0.840199 0.335314 -3.5628
LeftToes  -5.6298e-010 8.41567e-011 -1.83319e-011
130
root  33.3874 37.9564 2.05856 7.74759 84.3168 13.0613
RightUpLeg  14.7489 -3.70872 -1.68561
RightLeg  16.4637 6.09073 0.749412
RightFoot  -22.5245 -0.491531 -3.46778
RightToes  3.49245e-010 0 -3.6325e-017
Spine  1.69206 1.83224 7.7623
Spine1  9.95819 4.11802 -7.74891
HEad  -13.8736 0.359349 -1.89184
LeftShoulder1  -0.541529 4.87386 -33.3574
LeftArm  3.34623 17.2571 -38.0022
LeftForeArm  38.969 -10.1795 -9.69704
LeftHand  -0.11721 8.90606 -2.15035
RightShoulder  -0.758328 -5.67911 28.219
RightArm  25.6561 11.87 50.9779
RightForeArm  9.72335 20.0134 4.8808
RightHand  -0.0388974 3.84523 -0.747742
LeftUpLeg  -18.1931 1.87924 -0.652343
LeftLeg  5.12015 4.4692 0.394109
LeftFoot  1.38168 0.0983268 -1.14025
LeftToes  -5.6298e-010 8.41567e-011 -1.83319e-011
131
root  34.7666 37.7171 1.9858 13.5857 83.0904 19.1744
RightUpLeg  16.3967 0.0862207 -2.09246
RightLeg  18.0853 3.59935 0.617385
RightFoot  -23.8447 -0.305851 -1.33251
RightToes  3.49245e-010 0 -3.6325e-017
Spine  1.93343 2.20359 6.40947
Spine1  9.5317 4.57492 -8.13081
HEad  -13.4915 0.661665 -1.67253
LeftShoulder1  -0.714346 5.27439 -34.1546
LeftArm  4.76902 14.0269 -37.3611
LeftForeArm  38.5672 -10.2465 -9.9905
LeftHand  -0.113469 8.50307 -2.35792
RightShoulder  -0.791745 -5.75571 28.5406
RightArm  24.3252 10.0424 50.8186
RightForeArm  11.5773 17.0714 5.88266
RightHand  -0.068257 4.22671 -1.10158
LeftUpLeg  -18.8204 2.19189 -1.90507
LeftLeg  9.5717 5.10695 0.853218
LeftFoot  6.71143 -0.304835 1.73657
LeftToes  -5.6298e-010 8.41567e-011 -1.83319e-011
